<svg id="Layer_1" data-name="Layer 1" xmlns="http://www.w3.org/2000/svg" viewBox="0 0 833.51 833.51"><defs><style>.cls-1{fill:#fff;stroke:#000;stroke-miterlimit:10;stroke-width:16px;}</style></defs><circle class="cls-1" cx="416.76" cy="416.76" r="408.76"/><path d="M441.07,535.27a85.34,85.34,0,1,1,85.33-85.34A85.33,85.33,0,0,1,441.07,535.27Zm128,85.33a64,64,0,0,0-64-64h-128a64,64,0,0,0-64,64v64h256Zm0-277.33a85.34,85.34,0,1,1,85.33-85.34A85.33,85.33,0,0,1,569.07,343.27Zm-256,0a85.34,85.34,0,1,1,85.33-85.34A85.33,85.33,0,0,1,313.07,343.27Zm0,106.66a127.3,127.3,0,0,1,32.79-85.33H249.07a64,64,0,0,0-64,64v64H320.52A127.44,127.44,0,0,1,313.07,449.93ZM561.63,492.6H697.07v-64a64,64,0,0,0-64-64H536.28a127,127,0,0,1,25.35,128Z" transform="translate(-24.31 -11.84)"/></svg>